MerriweatherSansExtraBold.ufo
<glyph name="numbersign" format="1">
  <advance width="1709"/>
  <unicode hex="0023"/>
  <outline>
    <contour>
      <point x="354" y="0" type="line"/>
      <point x="653" y="0" type="line"/>
      <point x="788" y="1373" type="line"/>
      <point x="486" y="1373" type="line"/>
    </contour>
    <contour>
      <point x="922" y="0" type="line"/>
      <point x="1216" y="0" type="line"/>
      <point x="1349" y="1373" type="line"/>
      <point x="1050" y="1373" type="line"/>
    </contour>
    <contour>
      <point x="1511" y="838" type="line"/>
      <point x="1511" y="1075" type="line"/>
      <point x="247" y="1075" type="line"/>
      <point x="247" y="838" type="line"/>
    </contour>
    <contour>
      <point x="1467" y="305" type="line"/>
      <point x="1467" y="553" type="line"/>
      <point x="206" y="553" type="line"/>
      <point x="206" y="305" type="line"/>
    </contour>
  </outline>
</glyph>
<glyph name="comma" format="1">
  <advance width="700"/>
  <unicode hex="002C"/>
  <outline>
    <contour>
      <point x="174" y="-408" type="line"/>
      <point x="306" y="-512" type="line"/>
      <point x="458" y="-454"/>
      <point x="581" y="-237"/>
      <point x="581" y="-11" type="curve" smooth="yes"/>
      <point x="581" y="106"/>
      <point x="528" y="275"/>
      <point x="414" y="318" type="curve"/>
      <point x="151" y="182" type="line"/>
      <point x="151" y="75" type="line"/>
      <point x="197" y="67"/>
      <point x="255" y="-31"/>
      <point x="255" y="-120" type="curve" smooth="yes"/>
      <point x="255" y="-252"/>
      <point x="213" y="-353"/>
      <point x="174" y="-382" type="curve"/>
    </contour>
  </outline>
</glyph>
<glyph name="five" format="1">
  <advance width="1320"/>
  <unicode hex="0035"/>
  <outline>
    <contour>
      <point x="321" y="-365" type="curve" smooth="yes"/>
      <point x="849" y="-365"/>
      <point x="1179" y="-119"/>
      <point x="1179" y="243" type="curve" smooth="yes"/>
      <point x="1179" y="519"/>
      <point x="1023" y="684"/>
      <point x="734" y="684" type="curve" smooth="yes"/>
      <point x="655" y="684"/>
      <point x="568" y="670"/>
      <point x="484" y="644" type="curve"/>
      <point x="515" y="951" type="line"/>
      <point x="1102" y="951" type="line"/>
      <point x="1134" y="1252" type="line"/>
      <point x="249" y="1252" type="line"/>
      <point x="186" y="389" type="line"/>
      <point x="252" y="355" type="line"/>
      <point x="342" y="387"/>
      <point x="453" y="420"/>
      <point x="543" y="420" type="curve" smooth="yes"/>
      <point x="723" y="419"/>
      <point x="799" y="355"/>
      <point x="799" y="229" type="curve" smooth="yes"/>
      <point x="799" y="39"/>
      <point x="602" y="-99"/>
      <point x="254" y="-99" type="curve" smooth="yes"/>
      <point x="227" y="-99"/>
      <point x="201" y="-98"/>
      <point x="173" y="-97" type="curve"/>
      <point x="172" y="-351" type="line"/>
      <point x="215" y="-361"/>
      <point x="286" y="-365"/>
    </contour>
  </outline>
</glyph>
<glyph name="six" format="1">
  <advance width="1456"/>
  <unicode hex="0036"/>
  <outline>
    <contour>
      <point x="118" y="623" type="curve" smooth="yes"/>
      <point x="118" y="252"/>
      <point x="368" y="-16"/>
      <point x="714" y="-16" type="curve" smooth="yes"/>
      <point x="1136" y="-16"/>
      <point x="1338" y="252"/>
      <point x="1338" y="568" type="curve" smooth="yes"/>
      <point x="1338" y="843"/>
      <point x="1161" y="1038"/>
      <point x="909" y="1038" type="curve" smooth="yes"/>
      <point x="737" y="1038"/>
      <point x="624" y="963"/>
      <point x="594" y="921" type="curve"/>
      <point x="662" y="729" type="line"/>
      <point x="690" y="742"/>
      <point x="725" y="762"/>
      <point x="794" y="762" type="curve" smooth="yes"/>
      <point x="888" y="762"/>
      <point x="970" y="693"/>
      <point x="970" y="497" type="curve" smooth="yes"/>
      <point x="970" y="333"/>
      <point x="895" y="237"/>
      <point x="748" y="237" type="curve" smooth="yes"/>
      <point x="576" y="237"/>
      <point x="509" y="424"/>
      <point x="511" y="688" type="curve" smooth="yes"/>
      <point x="514" y="990"/>
      <point x="715" y="1339"/>
      <point x="1096" y="1434" type="curve"/>
      <point x="1012" y="1653" type="line"/>
      <point x="648" y="1608"/>
      <point x="118" y="1231"/>
    </contour>
  </outline>
</glyph>
<glyph name="seven" format="1">
  <advance width="1334"/>
  <unicode hex="0037"/>
  <outline>
    <contour>
      <point x="284" y="-292" type="curve"/>
      <point x="650" y="-394" type="line"/>
      <point x="1242" y="1155" type="line"/>
      <point x="1161" y="1271" type="line"/>
      <point x="122" y="1271" type="line"/>
      <point x="122" y="929" type="line"/>
      <point x="824" y="928" type="line"/>
      <point x="743" y="730"/>
      <point x="412" y="-26"/>
    </contour>
  </outline>
</glyph>
<glyph name="nine" format="1">
  <advance width="1455"/>
  <unicode hex="0039"/>
  <outline>
    <contour>
      <point x="123" y="698" type="curve" smooth="yes"/>
      <point x="123" y="417"/>
      <point x="300" y="206"/>
      <point x="553" y="206" type="curve" smooth="yes"/>
      <point x="730" y="206"/>
      <point x="840" y="274"/>
      <point x="868" y="314" type="curve"/>
      <point x="803" y="505" type="line"/>
      <point x="772" y="495"/>
      <point x="746" y="481"/>
      <point x="671" y="481" type="curve" smooth="yes"/>
      <point x="570" y="481"/>
      <point x="489" y="566"/>
      <point x="489" y="768" type="curve" smooth="yes"/>
      <point x="489" y="924"/>
      <point x="570" y="1016"/>
      <point x="711" y="1016" type="curve" smooth="yes"/>
      <point x="880" y="1016"/>
      <point x="950" y="832"/>
      <point x="948" y="557" type="curve" smooth="yes"/>
      <point x="945" y="263"/>
      <point x="734" y="-108"/>
      <point x="343" y="-204" type="curve"/>
      <point x="431" y="-416" type="line"/>
      <point x="795" y="-370"/>
      <point x="1340" y="14"/>
      <point x="1340" y="632" type="curve"/>
      <point x="1340" y="1010"/>
      <point x="1103" y="1270"/>
      <point x="754" y="1270" type="curve" smooth="yes"/>
      <point x="338" y="1270"/>
      <point x="123" y="1023"/>
    </contour>
  </outline>
</glyph>
<glyph name="equal" format="1">
  <advance width="1430"/>
  <unicode hex="003D"/>
  <outline>
    <contour>
      <point x="253" y="904" type="line"/>
      <point x="1177" y="904" type="line"/>
      <point x="1177" y="1155" type="line"/>
      <point x="253" y="1155" type="line"/>
    </contour>
    <contour>
      <point x="253" y="395" type="line"/>
      <point x="1177" y="395" type="line"/>
      <point x="1177" y="647" type="line"/>
      <point x="253" y="647" type="line"/>
    </contour>
  </outline>
</glyph>
<glyph name="C" format="1">
  <advance width="1306"/>
  <unicode hex="0043"/>
  <outline>
    <contour>
      <point x="85" y="758" type="curve" smooth="yes"/>
      <point x="85" y="287"/>
      <point x="365" y="-16"/>
      <point x="868" y="-16" type="curve" smooth="yes"/>
      <point x="1046" y="-16"/>
      <point x="1163" y="31"/>
      <point x="1242" y="64" type="curve"/>
      <point x="1241" y="376" type="line"/>
      <point x="1190" y="334"/>
      <point x="1041" y="278"/>
      <point x="911" y="278" type="curve" smooth="yes"/>
      <point x="627" y="278"/>
      <point x="480" y="480"/>
      <point x="480" y="781" type="curve" smooth="yes"/>
      <point x="480" y="1075"/>
      <point x="662" y="1236"/>
      <point x="895" y="1236" type="curve" smooth="yes"/>
      <point x="1078" y="1236"/>
      <point x="1169" y="1177"/>
      <point x="1212" y="1148" type="curve"/>
      <point x="1262" y="1477" type="line"/>
      <point x="1170" y="1496"/>
      <point x="1075" y="1538"/>
      <point x="864" y="1538" type="curve" smooth="yes"/>
      <point x="429" y="1538"/>
      <point x="85" y="1273"/>
    </contour>
    <contour>
      <point x="790" y="-170" type="move" name="btm"/>
    </contour>
    <contour>
      <point x="840" y="1700" type="move" name="top"/>
    </contour>
  </outline>
</glyph>
<glyph name="G" format="1">
  <advance width="1508"/>
  <unicode hex="0047"/>
  <outline>
    <contour>
      <point x="85" y="753" type="curve" smooth="yes"/>
      <point x="85" y="268"/>
      <point x="376" y="-16"/>
      <point x="830" y="-16" type="curve" smooth="yes"/>
      <point x="1175" y="-16"/>
      <point x="1273" y="81"/>
      <point x="1392" y="86" type="curve"/>
      <point x="1392" y="854" type="line"/>
      <point x="827" y="854" type="line"/>
      <point x="827" y="582" type="line"/>
      <point x="1081" y="563" type="line"/>
      <point x="1044" y="609" type="line"/>
      <point x="1044" y="300" type="line"/>
      <point x="995" y="280"/>
      <point x="930" y="268"/>
      <point x="824" y="268" type="curve" smooth="yes"/>
      <point x="596" y="268"/>
      <point x="474" y="485"/>
      <point x="474" y="780" type="curve" smooth="yes"/>
      <point x="474" y="1067"/>
      <point x="624" y="1240"/>
      <point x="888" y="1240" type="curve" smooth="yes"/>
      <point x="1092" y="1240"/>
      <point x="1220" y="1201"/>
      <point x="1300" y="1160" type="curve"/>
      <point x="1310" y="1478" type="line"/>
      <point x="1195" y="1500"/>
      <point x="1096" y="1538"/>
      <point x="873" y="1538" type="curve" smooth="yes"/>
      <point x="433" y="1538"/>
      <point x="85" y="1316"/>
    </contour>
    <contour>
      <point x="807" y="-170" type="move" name="btm"/>
    </contour>
    <contour>
      <point x="842" y="1701" type="move" name="top"/>
    </contour>
  </outline>
</glyph>
<glyph name="J" format="1">
  <advance width="800"/>
  <unicode hex="004A"/>
  <outline>
    <contour>
      <point x="48" y="-332" type="line"/>
      <point x="219" y="-340"/>
      <point x="545" y="-201"/>
      <point x="602" y="94" type="curve" smooth="yes"/>
      <point x="631" y="238"/>
      <point x="621" y="414"/>
      <point x="621" y="613" type="curve" smooth="yes"/>
      <point x="621" y="1522" type="line"/>
      <point x="237" y="1522" type="line"/>
      <point x="237" y="608" type="line" smooth="yes"/>
      <point x="237" y="349"/>
      <point x="236" y="218"/>
      <point x="205" y="110" type="curve" smooth="yes"/>
      <point x="163" y="-39"/>
      <point x="64" y="-102"/>
      <point x="-35" y="-141" type="curve"/>
    </contour>
    <contour>
      <point x="235" y="-170" type="move" name="btm"/>
    </contour>
    <contour>
      <point x="422" y="1701" type="move" name="top"/>
    </contour>
  </outline>
</glyph>
<glyph name="K" format="1">
  <advance width="1468"/>
  <unicode hex="004B"/>
  <outline>
    <contour>
      <point x="173" y="0" type="line"/>
      <point x="552" y="0" type="line"/>
      <point x="552" y="609" type="line"/>
      <point x="511" y="383" type="line"/>
      <point x="788" y="713" type="line"/>
      <point x="877" y="781" type="line"/>
      <point x="1440" y="1522" type="line"/>
      <point x="1027" y="1522" type="line"/>
      <point x="552" y="881" type="line"/>
      <point x="552" y="1522" type="line"/>
      <point x="173" y="1522" type="line"/>
    </contour>
    <contour>
      <point x="974" y="120" type="curve" smooth="yes"/>
      <point x="1008" y="57"/>
      <point x="1022" y="27"/>
      <point x="1039" y="0" type="curve"/>
      <point x="1466" y="0" type="line"/>
      <point x="1401" y="111" type="line"/>
      <point x="1245" y="377"/>
      <point x="1007" y="788"/>
      <point x="909" y="909" type="curve"/>
      <point x="801" y="786" type="line"/>
      <point x="664" y="636" type="line"/>
      <point x="771" y="481"/>
      <point x="872" y="313"/>
    </contour>
    <contour>
      <point x="767" y="-170" type="move" name="btm"/>
    </contour>
    <contour>
      <point x="767" y="1701" type="move" name="top"/>
    </contour>
  </outline>
</glyph>
<glyph name="S" format="1">
  <advance width="1229"/>
  <unicode hex="0053"/>
  <outline>
    <contour>
      <point x="611" y="-16" type="curve" smooth="yes"/>
      <point x="969" y="-16"/>
      <point x="1166" y="162"/>
      <point x="1166" y="435" type="curve" smooth="yes"/>
      <point x="1166" y="674"/>
      <point x="1010" y="790"/>
      <point x="748" y="908" type="curve" smooth="yes"/>
      <point x="564" y="992"/>
      <point x="485" y="1042"/>
      <point x="485" y="1134" type="curve" smooth="yes"/>
      <point x="485" y="1211"/>
      <point x="551" y="1262"/>
      <point x="695" y="1262" type="curve" smooth="yes"/>
      <point x="828" y="1262"/>
      <point x="971" y="1213"/>
      <point x="1032" y="1165" type="curve"/>
      <point x="1091" y="1451" type="line"/>
      <point x="1036" y="1483"/>
      <point x="890" y="1538"/>
      <point x="662" y="1538" type="curve" smooth="yes"/>
      <point x="340" y="1538"/>
      <point x="119" y="1398"/>
      <point x="119" y="1121" type="curve" smooth="yes"/>
      <point x="119" y="876"/>
      <point x="282" y="741"/>
      <point x="476" y="649" type="curve" smooth="yes"/>
      <point x="703" y="541"/>
      <point x="785" y="503"/>
      <point x="785" y="406" type="curve" smooth="yes"/>
      <point x="785" y="316"/>
      <point x="723" y="277"/>
      <point x="579" y="277" type="curve" smooth="yes"/>
      <point x="419" y="276"/>
      <point x="251" y="332"/>
      <point x="177" y="374" type="curve"/>
      <point x="130" y="78" type="line"/>
      <point x="189" y="41"/>
      <point x="393" y="-16"/>
    </contour>
    <contour>
      <point x="607" y="-170" type="move" name="btm"/>
    </contour>
    <contour>
      <point x="663" y="1700" type="move" name="top"/>
    </contour>
  </outline>
</glyph>
<glyph name="T" format="1">
  <advance width="1253"/>
  <unicode hex="0054"/>
  <outline>
    <contour>
      <point x="435" y="0" type="line"/>
      <point x="819" y="0" type="line"/>
      <point x="819" y="1228" type="line"/>
      <point x="1225" y="1228" type="line"/>
      <point x="1225" y="1522" type="line"/>
      <point x="28" y="1522" type="line"/>
      <point x="28" y="1228" type="line"/>
      <point x="435" y="1228" type="line"/>
    </contour>
    <contour>
      <point x="625" y="-170" type="move" name="btm"/>
    </contour>
    <contour>
      <point x="625" y="1700" type="move" name="top"/>
    </contour>
  </outline>
</glyph>
<glyph name="k" format="1">
  <advance width="1287"/>
  <unicode hex="006B"/>
  <outline>
    <contour>
      <point x="1279" y="1140" type="line"/>
      <point x="858" y="1140" type="line"/>
      <point x="472" y="663" type="line"/>
      <point x="514" y="613" type="line"/>
      <point x="530" y="1032" type="line"/>
      <point x="530" y="1661" type="line"/>
      <point x="159" y="1661" type="line"/>
      <point x="159" y="677" type="line"/>
      <point x="159" y="0" type="line"/>
      <point x="530" y="0" type="line"/>
      <point x="530" y="189" type="line"/>
      <point x="526" y="387" type="line"/>
      <point x="517" y="312" type="line"/>
    </contour>
    <contour>
      <point x="613" y="478" type="line"/>
      <point x="895" y="0" type="line"/>
      <point x="1306" y="0" type="line"/>
      <point x="853" y="733" type="line"/>
    </contour>
    <contour>
      <point x="671" y="-170" type="move" name="btm"/>
    </contour>
    <contour>
      <point x="851" y="1700" type="move" name="top"/>
    </contour>
  </outline>
</glyph>
<glyph name="n" format="1">
  <advance width="1380"/>
  <unicode hex="006E"/>
  <outline>
    <contour>
      <point x="163" y="0" type="line"/>
      <point x="533" y="0" type="line"/>
      <point x="533" y="793" type="line"/>
      <point x="583" y="841"/>
      <point x="661" y="867"/>
      <point x="715" y="867" type="curve" smooth="yes"/>
      <point x="823" y="870"/>
      <point x="860" y="818"/>
      <point x="860" y="652" type="curve" smooth="yes"/>
      <point x="860" y="0" type="line"/>
      <point x="1230" y="0" type="line"/>
      <point x="1230" y="718" type="line" smooth="yes"/>
      <point x="1230" y="1046"/>
      <point x="1115" y="1163"/>
      <point x="882" y="1158" type="curve" smooth="yes"/>
      <point x="744" y="1156"/>
      <point x="595" y="1089"/>
      <point x="510" y="1018" type="curve"/>
      <point x="501" y="1140" type="line"/>
      <point x="163" y="1140" type="line"/>
    </contour>
    <contour>
      <point x="675" y="-170" type="move" name="btm"/>
    </contour>
    <contour>
      <point x="777" y="1700" type="move" name="top"/>
    </contour>
  </outline>
</glyph>
<glyph name="p" format="1">
  <advance width="1384"/>
  <unicode hex="0070"/>
  <outline>
    <contour>
      <point x="159" y="-506" type="line"/>
      <point x="530" y="-506" type="line"/>
      <point x="530" y="-139" type="line"/>
      <point x="526" y="42" type="line"/>
      <point x="530" y="147" type="line"/>
      <point x="530" y="976" type="line"/>
      <point x="509" y="1002" type="line"/>
      <point x="509" y="1140" type="line"/>
      <point x="159" y="1140" type="line"/>
    </contour>
    <contour>
      <point x="715" y="-16" type="curve" smooth="yes"/>
      <point x="1064" y="-16"/>
      <point x="1299" y="226"/>
      <point x="1299" y="612" type="curve" smooth="yes"/>
      <point x="1299" y="982"/>
      <point x="1088" y="1156"/>
      <point x="844" y="1156" type="curve" smooth="yes"/>
      <point x="641" y="1156"/>
      <point x="539" y="1062"/>
      <point x="492" y="1012" type="curve"/>
      <point x="530" y="821" type="line"/>
      <point x="569" y="852"/>
      <point x="646" y="881"/>
      <point x="718" y="881" type="curve" smooth="yes"/>
      <point x="836" y="881"/>
      <point x="910" y="808"/>
      <point x="909" y="590" type="curve" smooth="yes"/>
      <point x="908" y="359"/>
      <point x="817" y="234"/>
      <point x="687" y="234" type="curve" smooth="yes"/>
      <point x="618" y="234"/>
      <point x="560" y="246"/>
      <point x="530" y="275" type="curve"/>
      <point x="466" y="41" type="line"/>
      <point x="491" y="22"/>
      <point x="579" y="-16"/>
    </contour>
    <contour>
      <point x="785" y="-170" type="move" name="btm"/>
    </contour>
    <contour>
      <point x="830" y="1700" type="move" name="top"/>
    </contour>
  </outline>
</glyph>
<glyph name="s" format="1">
  <advance width="1084"/>
  <unicode hex="0073"/>
  <outline>
    <contour>
      <point x="107" y="76" type="line"/>
      <point x="171" y="36"/>
      <point x="341" y="-17"/>
      <point x="530" y="-17" type="curve" smooth="yes"/>
      <point x="821" y="-17"/>
      <point x="1011" y="109"/>
      <point x="1011" y="346" type="curve" smooth="yes"/>
      <point x="1011" y="523"/>
      <point x="907" y="621"/>
      <point x="696" y="689" type="curve" smooth="yes"/>
      <point x="517" y="745"/>
      <point x="462" y="775"/>
      <point x="462" y="835" type="curve" smooth="yes"/>
      <point x="463" y="887"/>
      <point x="509" y="913"/>
      <point x="637" y="913" type="curve" smooth="yes"/>
      <point x="747" y="913"/>
      <point x="870" y="862"/>
      <point x="912" y="826" type="curve"/>
      <point x="945" y="1086" type="line"/>
      <point x="893" y="1115"/>
      <point x="764" y="1156"/>
      <point x="578" y="1156" type="curve" smooth="yes"/>
      <point x="317" y="1156"/>
      <point x="104" y="1045"/>
      <point x="104" y="824" type="curve" smooth="yes"/>
      <point x="103" y="649"/>
      <point x="188" y="533"/>
      <point x="398" y="464" type="curve" smooth="yes"/>
      <point x="553" y="413"/>
      <point x="645" y="376"/>
      <point x="645" y="314" type="curve" smooth="yes"/>
      <point x="645" y="256"/>
      <point x="597" y="230"/>
      <point x="480" y="231" type="curve" smooth="yes"/>
      <point x="329" y="231"/>
      <point x="177" y="304"/>
      <point x="143" y="332" type="curve"/>
    </contour>
    <contour>
      <point x="521" y="-170" type="move" name="btm"/>
    </contour>
    <contour>
      <point x="553" y="1700" type="move" name="top"/>
    </contour>
  </outline>
</glyph>
<glyph name="w" format="1">
  <advance width="1783"/>
  <unicode hex="0077"/>
  <outline>
    <contour>
      <point x="353" y="-16" type="line"/>
      <point x="688" y="-16" type="line"/>
      <point x="848" y="545" type="line"/>
      <point x="923" y="910" type="line"/>
      <point x="862" y="910" type="line"/>
      <point x="935" y="545" type="line"/>
      <point x="1101" y="-16" type="line"/>
      <point x="1426" y="-16" type="line"/>
      <point x="1785" y="1140" type="line"/>
      <point x="1441" y="1140" type="line"/>
      <point x="1333" y="680" type="line"/>
      <point x="1238" y="206" type="line"/>
      <point x="1311" y="206" type="line"/>
      <point x="1208" y="679" type="line"/>
      <point x="1074" y="1140" type="line"/>
      <point x="741" y="1140" type="line"/>
      <point x="606" y="679" type="line"/>
      <point x="496" y="204" type="line"/>
      <point x="573" y="204" type="line"/>
      <point x="476" y="679" type="line"/>
      <point x="359" y="1140" type="line"/>
      <point x="-2" y="1140" type="line"/>
    </contour>
    <contour>
      <point x="904" y="-169" type="move" name="btm"/>
    </contour>
    <contour>
      <point x="904" y="1701" type="move" name="top"/>
    </contour>
  </outline>
</glyph>
<glyph name="x" format="1">
  <advance width="1238"/>
  <unicode hex="0078"/>
  <outline>
    <contour>
      <point x="6" y="0" type="line"/>
      <point x="431" y="0" type="line"/>
      <point x="589" y="279" type="line"/>
      <point x="656" y="411" type="line"/>
      <point x="565" y="411" type="line"/>
      <point x="644" y="279" type="line"/>
      <point x="819" y="0" type="line"/>
      <point x="1241" y="0" type="line"/>
      <point x="800" y="624" type="line"/>
      <point x="800" y="542" type="line"/>
      <point x="1233" y="1140" type="line"/>
      <point x="820" y="1140" type="line"/>
      <point x="670" y="893" type="line"/>
      <point x="593" y="746" type="line"/>
      <point x="674" y="746" type="line"/>
      <point x="585" y="893" type="line"/>
      <point x="427" y="1140" type="line"/>
      <point x="8" y="1140" type="line"/>
      <point x="435" y="535" type="line"/>
      <point x="426" y="602" type="line"/>
    </contour>
    <contour>
      <point x="631" y="-170" type="move" name="btm"/>
    </contour>
    <contour>
      <point x="631" y="1700" type="move" name="top"/>
    </contour>
  </outline>
</glyph>
<glyph name="bar" format="1">
  <advance width="862"/>
  <unicode hex="007C"/>
  <outline>
    <contour>
      <point x="287" y="-186" type="line"/>
      <point x="575" y="-186" type="line"/>
      <point x="575" y="1780" type="line"/>
      <point x="287" y="1780" type="line"/>
    </contour>
  </outline>
</glyph>
<glyph name="sterling" format="1">
  <advance width="1616"/>
  <unicode hex="00A3"/>
  <outline>
    <contour>
      <point x="103" y="124" type="curve" smooth="yes"/>
      <point x="103" y="24"/>
      <point x="192" y="-8"/>
      <point x="263" y="-8" type="curve" smooth="yes"/>
      <point x="342" y="-8"/>
      <point x="437" y="46"/>
      <point x="477" y="87" type="curve"/>
      <point x="597" y="85"/>
      <point x="750" y="-16"/>
      <point x="1049" y="-16" type="curve" smooth="yes"/>
      <point x="1380" y="-16"/>
      <point x="1527" y="139"/>
      <point x="1527" y="354" type="curve" smooth="yes"/>
      <point x="1527" y="527"/>
      <point x="1418" y="604"/>
      <point x="1374" y="630" type="curve"/>
      <point x="1112" y="506" type="line"/>
      <point x="1141" y="487"/>
      <point x="1179" y="431"/>
      <point x="1179" y="367" type="curve" smooth="yes"/>
      <point x="1179" y="279"/>
      <point x="1108" y="222"/>
      <point x="964" y="222" type="curve" smooth="yes"/>
      <point x="850" y="222"/>
      <point x="772" y="252"/>
      <point x="679" y="274" type="curve"/>
      <point x="745" y="330"/>
      <point x="778" y="432"/>
      <point x="778" y="573" type="curve" smooth="yes"/>
      <point x="778" y="964" type="line" smooth="yes"/>
      <point x="778" y="1217"/>
      <point x="870" y="1245"/>
      <point x="997" y="1245" type="curve" smooth="yes"/>
      <point x="1092" y="1245"/>
      <point x="1178" y="1197"/>
      <point x="1216" y="1164" type="curve"/>
      <point x="1362" y="1435" type="line"/>
      <point x="1291" y="1481"/>
      <point x="1169" y="1538"/>
      <point x="974" y="1538" type="curve" smooth="yes"/>
      <point x="603" y="1538"/>
      <point x="404" y="1324"/>
      <point x="404" y="1027" type="curve" smooth="yes"/>
      <point x="404" y="550" type="line" smooth="yes"/>
      <point x="404" y="471"/>
      <point x="398" y="338"/>
      <point x="369" y="311" type="curve"/>
      <point x="243" y="306"/>
      <point x="103" y="241"/>
    </contour>
    <contour>
      <point x="229" y="689" type="line"/>
      <point x="1070" y="689" type="line"/>
      <point x="1070" y="891" type="line"/>
      <point x="229" y="891" type="line"/>
    </contour>
  </outline>
</glyph>
<glyph name="brokenbar" format="1">
  <advance width="862"/>
  <unicode hex="00A6"/>
  <outline>
    <contour>
      <point x="287" y="973" type="line"/>
      <point x="575" y="973" type="line"/>
      <point x="575" y="1780" type="line"/>
      <point x="287" y="1780" type="line"/>
    </contour>
    <contour>
      <point x="287" y="-186" type="line"/>
      <point x="575" y="-186" type="line"/>
      <point x="575" y="605" type="line"/>
      <point x="287" y="605" type="line"/>
    </contour>
  </outline>
</glyph>
<glyph name="degree" format="1">
  <advance width="977"/>
  <unicode hex="00B0"/>
  <outline>
    <contour>
      <point x="112" y="1278" type="curve" smooth="yes"/>
      <point x="112" y="1071"/>
      <point x="276" y="908"/>
      <point x="488" y="908" type="curve" smooth="yes"/>
      <point x="709" y="908"/>
      <point x="865" y="1067"/>
      <point x="865" y="1278" type="curve" smooth="yes"/>
      <point x="865" y="1485"/>
      <point x="705" y="1647"/>
      <point x="488" y="1647" type="curve" smooth="yes"/>
      <point x="272" y="1647"/>
      <point x="112" y="1488"/>
    </contour>
    <contour>
      <point x="324" y="1278" type="curve" smooth="yes"/>
      <point x="324" y="1382"/>
      <point x="397" y="1448"/>
      <point x="488" y="1448" type="curve" smooth="yes"/>
      <point x="576" y="1448"/>
      <point x="653" y="1380"/>
      <point x="653" y="1278" type="curve" smooth="yes"/>
      <point x="653" y="1175"/>
      <point x="579" y="1107"/>
      <point x="488" y="1107" type="curve" smooth="yes"/>
      <point x="401" y="1107"/>
      <point x="324" y="1176"/>
    </contour>
  </outline>
</glyph>
<glyph name="paragraph" format="1">
  <advance width="1439"/>
  <unicode hex="00B6"/>
  <outline>
    <contour>
      <point x="482" y="0" type="line"/>
      <point x="765" y="0" type="line"/>
      <point x="765" y="1496" type="line"/>
      <point x="965" y="1496" type="line"/>
      <point x="966" y="0" type="line"/>
      <point x="1250" y="0" type="line"/>
      <point x="1250" y="1691" type="line"/>
      <point x="1069" y="1693"/>
      <point x="806" y="1711"/>
      <point x="658" y="1711" type="curve" smooth="yes"/>
      <point x="235" y="1711"/>
      <point x="48" y="1539"/>
      <point x="48" y="1248" type="curve" smooth="yes"/>
      <point x="48" y="915"/>
      <point x="230" y="777"/>
      <point x="482" y="777" type="curve"/>
    </contour>
  </outline>
</glyph>
<glyph name="cedilla" format="1">
  <advance width="529"/>
  <unicode hex="00B8"/>
  <outline>
    <contour>
      <point x="29" y="-436" type="line"/>
      <point x="56" y="-452"/>
      <point x="159" y="-464"/>
      <point x="220" y="-464" type="curve" smooth="yes"/>
      <point x="365" y="-464"/>
      <point x="483" y="-387"/>
      <point x="485" y="-216" type="curve" smooth="yes"/>
      <point x="486" y="-126"/>
      <point x="465" y="-9"/>
      <point x="419" y="30" type="curve"/>
      <point x="367" y="34" type="line"/>
      <point x="206" y="30" type="line"/>
      <point x="226" y="-2"/>
      <point x="245" y="-39"/>
      <point x="243" y="-119" type="curve" smooth="yes"/>
      <point x="242" y="-218"/>
      <point x="191" y="-269"/>
      <point x="126" y="-269" type="curve" smooth="yes"/>
      <point x="95" y="-269"/>
      <point x="69" y="-266"/>
      <point x="52" y="-255" type="curve"/>
    </contour>
    <contour>
      <point x="306" y="-170" type="move" name="_btm"/>
    </contour>
  </outline>
</glyph>
<glyph name="onequarter" format="1">
  <advance width="2583"/>
  <unicode hex="00BC"/>
  <outline>
    <contour>
      <point x="1422" y="187" type="line"/>
      <point x="2444" y="187" type="line"/>
      <point x="2444" y="402" type="line"/>
      <point x="1729" y="402" type="line"/>
      <point x="1772" y="477" type="line"/>
      <point x="2151" y="1087" type="line"/>
      <point x="1911" y="1190" type="line"/>
      <point x="1842" y="1190" type="line"/>
      <point x="1369" y="281" type="line"/>
    </contour>
    <contour>
      <point x="1992" y="-78" type="line"/>
      <point x="2292" y="-78" type="line"/>
      <point x="2292" y="674" type="line"/>
      <point x="2022" y="674" type="line"/>
      <point x="1994" y="395" type="line"/>
    </contour>
    <contour>
      <point x="431" y="680" type="line"/>
      <point x="764" y="680" type="line"/>
      <point x="764" y="1689" type="line"/>
      <point x="590" y="1714" type="line"/>
      <point x="542" y="1675"/>
      <point x="325" y="1565"/>
      <point x="203" y="1530" type="curve"/>
      <point x="243" y="1333" type="line"/>
      <point x="309" y="1344"/>
      <point x="374" y="1358"/>
      <point x="431" y="1376" type="curve"/>
    </contour>
    <component base="fraction" xOffset="659"/>
  </outline>
</glyph>
<glyph name="threequarters" format="1">
  <advance width="2583"/>
  <unicode hex="00BE"/>
  <outline>
    <contour>
      <point x="1422" y="187" type="line"/>
      <point x="2444" y="187" type="line"/>
      <point x="2444" y="402" type="line"/>
      <point x="1729" y="402" type="line"/>
      <point x="1772" y="477" type="line"/>
      <point x="2151" y="1087" type="line"/>
      <point x="1911" y="1190" type="line"/>
      <point x="1842" y="1190" type="line"/>
      <point x="1369" y="281" type="line"/>
    </contour>
    <contour>
      <point x="1992" y="-78" type="line"/>
      <point x="2292" y="-78" type="line"/>
      <point x="2292" y="674" type="line"/>
      <point x="2022" y="674" type="line"/>
      <point x="1994" y="395" type="line"/>
    </contour>
    <contour>
      <point x="144" y="648" type="line"/>
      <point x="214" y="626"/>
      <point x="308" y="596"/>
      <point x="461" y="596" type="curve" smooth="yes"/>
      <point x="806" y="596"/>
      <point x="963" y="755"/>
      <point x="963" y="958" type="curve" smooth="yes"/>
      <point x="963" y="1086"/>
      <point x="876" y="1184"/>
      <point x="724" y="1207" type="curve"/>
      <point x="857" y="1276"/>
      <point x="905" y="1363"/>
      <point x="905" y="1470" type="curve" smooth="yes"/>
      <point x="905" y="1608"/>
      <point x="783" y="1728"/>
      <point x="497" y="1728" type="curve" smooth="yes"/>
      <point x="352" y="1728"/>
      <point x="176" y="1672"/>
      <point x="107" y="1614" type="curve"/>
      <point x="176" y="1425" type="line"/>
      <point x="260" y="1482"/>
      <point x="374" y="1507"/>
      <point x="439" y="1507" type="curve" smooth="yes"/>
      <point x="554" y="1506"/>
      <point x="602" y="1473"/>
      <point x="603" y="1416" type="curve" smooth="yes"/>
      <point x="604" y="1354"/>
      <point x="548" y="1308"/>
      <point x="467" y="1283" type="curve"/>
      <point x="422" y="1271"/>
      <point x="366" y="1263"/>
      <point x="297" y="1256" type="curve"/>
      <point x="320" y="1048" type="line"/>
      <point x="498" y="1076" type="line"/>
      <point x="612" y="1055"/>
      <point x="643" y="1006"/>
      <point x="643" y="958" type="curve" smooth="yes"/>
      <point x="643" y="880"/>
      <point x="576" y="821"/>
      <point x="414" y="820" type="curve" smooth="yes"/>
      <point x="273" y="821"/>
      <point x="207" y="842"/>
      <point x="143" y="858" type="curve"/>
    </contour>
    <component base="fraction" xOffset="659"/>
  </outline>
</glyph>
<glyph name="Thorn" format="1">
  <advance width="1393"/>
  <unicode hex="00DE"/>
  <outline>
    <contour>
      <point x="556" y="1522" type="line"/>
      <point x="173" y="1522" type="line"/>
      <point x="173" y="0" type="line"/>
      <point x="556" y="0" type="line"/>
    </contour>
    <contour>
      <point x="543" y="246" type="line"/>
      <point x="582" y="242"/>
      <point x="665" y="235"/>
      <point x="775" y="235" type="curve" smooth="yes"/>
      <point x="1137" y="235"/>
      <point x="1334" y="453"/>
      <point x="1334" y="805" type="curve" smooth="yes"/>
      <point x="1334" y="1128"/>
      <point x="1133" y="1299"/>
      <point x="799" y="1299" type="curve" smooth="yes"/>
      <point x="702" y="1299"/>
      <point x="598" y="1288"/>
      <point x="519" y="1285" type="curve"/>
      <point x="541" y="1003" type="line"/>
      <point x="588" y="1015"/>
      <point x="635" y="1021"/>
      <point x="691" y="1022" type="curve" smooth="yes"/>
      <point x="871" y="1027"/>
      <point x="958" y="936"/>
      <point x="958" y="791" type="curve" smooth="yes"/>
      <point x="958" y="564"/>
      <point x="838" y="504"/>
      <point x="690" y="504" type="curve" smooth="yes"/>
      <point x="645" y="504"/>
      <point x="596" y="504"/>
      <point x="543" y="515" type="curve"/>
    </contour>
  </outline>
</glyph>
<glyph name="idieresis" format="1">
  <advance width="690"/>
  <unicode hex="00EF"/>
  <outline>
    <contour>
      <point x="89" y="1280" type="curve" smooth="yes"/>
      <point x="204" y="1280"/>
      <point x="288" y="1374"/>
      <point x="288" y="1485" type="curve" smooth="yes"/>
      <point x="288" y="1597"/>
      <point x="222" y="1674"/>
      <point x="106" y="1674" type="curve" smooth="yes"/>
      <point x="-8" y="1674"/>
      <point x="-96" y="1581"/>
      <point x="-96" y="1470" type="curve" smooth="yes"/>
      <point x="-96" y="1359"/>
      <point x="-24" y="1280"/>
    </contour>
    <contour>
      <point x="584" y="1280" type="curve" smooth="yes"/>
      <point x="699" y="1280"/>
      <point x="784" y="1374"/>
      <point x="784" y="1485" type="curve" smooth="yes"/>
      <point x="784" y="1597"/>
      <point x="718" y="1674"/>
      <point x="601" y="1674" type="curve" smooth="yes"/>
      <point x="488" y="1674"/>
      <point x="399" y="1581"/>
      <point x="399" y="1470" type="curve" smooth="yes"/>
      <point x="399" y="1359"/>
      <point x="471" y="1280"/>
    </contour>
    <component base="dotlessi"/>
  </outline>
</glyph>
<glyph name="divide" format="1">
  <advance width="1417"/>
  <unicode hex="00F7"/>
  <outline>
    <contour>
      <point x="725" y="1029" type="curve" smooth="yes"/>
      <point x="851" y="1029"/>
      <point x="946" y="1134"/>
      <point x="947" y="1254" type="curve" smooth="yes"/>
      <point x="947" y="1373"/>
      <point x="870" y="1461"/>
      <point x="744" y="1461" type="curve" smooth="yes"/>
      <point x="618" y="1461"/>
      <point x="520" y="1356"/>
      <point x="519" y="1237" type="curve" smooth="yes"/>
      <point x="519" y="1118"/>
      <point x="602" y="1029"/>
    </contour>
    <contour>
      <point x="722" y="97" type="curve" smooth="yes"/>
      <point x="849" y="97"/>
      <point x="944" y="202"/>
      <point x="944" y="321" type="curve" smooth="yes"/>
      <point x="945" y="440"/>
      <point x="867" y="528"/>
      <point x="742" y="528" type="curve" smooth="yes"/>
      <point x="616" y="528"/>
      <point x="517" y="424"/>
      <point x="517" y="305" type="curve" smooth="yes"/>
      <point x="517" y="186"/>
      <point x="600" y="97"/>
    </contour>
    <contour>
      <point x="190" y="639" type="line"/>
      <point x="1226" y="639" type="line"/>
      <point x="1226" y="908" type="line"/>
      <point x="190" y="908" type="line"/>
    </contour>
  </outline>
</glyph>
<glyph name="oslash" format="1">
  <advance width="1335"/>
  <unicode hex="00F8"/>
  <outline>
    <contour>
      <point x="314" y="-209" type="line"/>
      <point x="445" y="-234" type="line"/>
      <point x="1021" y="1356" type="line"/>
      <point x="888" y="1384" type="line"/>
    </contour>
    <contour>
      <point x="655" y="-16" type="curve" smooth="yes"/>
      <point x="997" y="-16"/>
      <point x="1239" y="181"/>
      <point x="1244" y="547" type="curve" smooth="yes"/>
      <point x="1249" y="874"/>
      <point x="1098" y="1156"/>
      <point x="676" y="1156" type="curve" smooth="yes"/>
      <point x="334" y="1156"/>
      <point x="92" y="959"/>
      <point x="86" y="593" type="curve"/>
      <point x="82" y="266"/>
      <point x="233" y="-16"/>
    </contour>
    <contour>
      <point x="663" y="239" type="curve" smooth="yes"/>
      <point x="519" y="239"/>
      <point x="458" y="394"/>
      <point x="458" y="582" type="curve" smooth="yes"/>
      <point x="458" y="789"/>
      <point x="520" y="899"/>
      <point x="669" y="899" type="curve"/>
      <point x="813" y="899"/>
      <point x="872" y="748"/>
      <point x="872" y="564" type="curve" smooth="yes"/>
      <point x="872" y="346"/>
      <point x="809" y="239"/>
    </contour>
  </outline>
</glyph>
<glyph name="Aogonek" format="1">
  <advance width="1460"/>
  <unicode hex="0104"/>
  <outline>
    <contour>
      <point x="936" y="-308" type="curve"/>
      <point x="940" y="-439"/>
      <point x="1071" y="-516"/>
      <point x="1217" y="-516" type="curve" smooth="yes"/>
      <point x="1330" y="-516"/>
      <point x="1408" y="-492"/>
      <point x="1475" y="-449" type="curve"/>
      <point x="1475" y="-279" type="line"/>
      <point x="1438" y="-291"/>
      <point x="1401" y="-299"/>
      <point x="1366" y="-299" type="curve" smooth="yes"/>
      <point x="1295" y="-299"/>
      <point x="1245" y="-276"/>
      <point x="1241" y="-211" type="curve"/>
      <point x="1235" y="-117"/>
      <point x="1325" y="-46"/>
      <point x="1428" y="8" type="curve"/>
      <point x="1334" y="60" type="line"/>
      <point x="1174" y="1" type="line"/>
      <point x="1056" y="-57"/>
      <point x="931" y="-161"/>
    </contour>
    <component base="A"/>
  </outline>
</glyph>
<glyph name="Dcroat" format="1">
  <advance width="1561"/>
  <unicode hex="0110"/>
  <outline>
    <contour>
      <point x="60" y="675" type="line"/>
      <point x="850" y="675" type="line"/>
      <point x="850" y="913" type="line"/>
      <point x="60" y="913" type="line"/>
    </contour>
    <component base="D"/>
  </outline>
</glyph>
<glyph name="Hbar" format="1">
  <advance width="1643"/>
  <unicode hex="0126"/>
  <outline>
    <contour>
      <point x="173" y="0" type="line"/>
      <point x="558" y="0" type="line"/>
      <point x="558" y="573" type="line"/>
      <point x="1085" y="573" type="line"/>
      <point x="1085" y="0" type="line"/>
      <point x="1470" y="0" type="line"/>
      <point x="1470" y="1522" type="line"/>
      <point x="1085" y="1522" type="line"/>
      <point x="1085" y="839" type="line"/>
      <point x="558" y="839" type="line"/>
      <point x="558" y="1522" type="line"/>
      <point x="173" y="1522" type="line"/>
    </contour>
    <contour>
      <point x="28" y="1035" type="line"/>
      <point x="1618" y="1035" type="line"/>
      <point x="1618" y="1255" type="line"/>
      <point x="28" y="1255" type="line"/>
    </contour>
  </outline>
</glyph>
<glyph name="iogonek" format="1">
  <advance width="690"/>
  <unicode hex="012F"/>
  <outline>
    <contour>
      <point x="13" y="-308" type="curve"/>
      <point x="17" y="-439"/>
      <point x="152" y="-516"/>
      <point x="298" y="-516" type="curve" smooth="yes"/>
      <point x="411" y="-516"/>
      <point x="489" y="-492"/>
      <point x="556" y="-449" type="curve"/>
      <point x="556" y="-279" type="line"/>
      <point x="519" y="-291"/>
      <point x="481" y="-299"/>
      <point x="447" y="-299" type="curve" smooth="yes"/>
      <point x="376" y="-299"/>
      <point x="322" y="-272"/>
      <point x="318" y="-207" type="curve"/>
      <point x="312" y="-113"/>
      <point x="394" y="-46"/>
      <point x="497" y="8" type="curve"/>
      <point x="403" y="60" type="line"/>
      <point x="243" y="1" type="line"/>
      <point x="137" y="-57"/>
      <point x="8" y="-161"/>
    </contour>
    <component base="dotlessi"/>
    <component base="dotaccent" xOffset="89"/>
  </outline>
</glyph>
<glyph name="dotlessi" format="1">
  <advance width="690"/>
  <unicode hex="0131"/>
  <outline>
    <contour>
      <point x="159" y="0" type="line"/>
      <point x="531" y="0" type="line"/>
      <point x="531" y="1140" type="line"/>
      <point x="159" y="1140" type="line"/>
    </contour>
    <contour>
      <point x="351" y="-170" type="move" name="btm"/>
    </contour>
    <contour>
      <point x="344" y="1700" type="move" name="top"/>
    </contour>
  </outline>
</glyph>
<glyph name="lslash" format="1">
  <advance width="697"/>
  <unicode hex="0142"/>
  <outline>
    <contour>
      <point x="22" y="669" type="line"/>
      <point x="708" y="920" type="line"/>
      <point x="708" y="1156" type="line"/>
      <point x="22" y="895" type="line"/>
    </contour>
    <component base="l"/>
  </outline>
</glyph>
<glyph name="Eng" format="1">
  <advance width="1631"/>
  <unicode hex="014A"/>
  <outline>
    <contour>
      <point x="528" y="0" type="line"/>
      <point x="528" y="659" type="line"/>
      <point x="442" y="1311" type="line"/>
      <point x="356" y="1311" type="line"/>
      <point x="587" y="815" type="line"/>
      <point x="1076" y="11" type="line"/>
      <point x="1076" y="-141"/>
      <point x="900" y="-277"/>
      <point x="729" y="-326" type="curve"/>
      <point x="803" y="-469" type="line"/>
      <point x="1109" y="-469"/>
      <point x="1347" y="-301"/>
      <point x="1414" y="-101" type="curve" smooth="yes"/>
      <point x="1457" y="31"/>
      <point x="1457" y="130"/>
      <point x="1457" y="317" type="curve" smooth="yes"/>
      <point x="1457" y="1522" type="line"/>
      <point x="1101" y="1522" type="line"/>
      <point x="1101" y="852" type="line"/>
      <point x="1165" y="277" type="line"/>
      <point x="1237" y="277" type="line"/>
      <point x="1041" y="687" type="line"/>
      <point x="536" y="1522" type="line"/>
      <point x="172" y="1522" type="line"/>
      <point x="173" y="0" type="line"/>
    </contour>
  </outline>
</glyph>
<glyph name="Uogonek" format="1">
  <advance width="1545"/>
  <unicode hex="0172"/>
  <outline>
    <contour>
      <point x="604" y="-292" type="curve"/>
      <point x="607" y="-423"/>
      <point x="739" y="-516"/>
      <point x="885" y="-516" type="curve" smooth="yes"/>
      <point x="990" y="-516"/>
      <point x="1075" y="-492"/>
      <point x="1143" y="-449" type="curve"/>
      <point x="1143" y="-279" type="line"/>
      <point x="1106" y="-291"/>
      <point x="1068" y="-299"/>
      <point x="1034" y="-299" type="curve" smooth="yes"/>
      <point x="962" y="-299"/>
      <point x="905" y="-272"/>
      <point x="901" y="-207" type="curve"/>
      <point x="899" y="-90"/>
      <point x="996" y="-1"/>
      <point x="1110" y="93" type="curve"/>
      <point x="978" y="95" type="line"/>
      <point x="830" y="15" type="line"/>
      <point x="712" y="-43"/>
      <point x="598" y="-145"/>
    </contour>
    <component base="U"/>
  </outline>
</glyph>
<glyph name="florin" format="1">
  <advance width="1196"/>
  <unicode hex="0192"/>
  <outline>
    <contour>
      <point x="250" y="-356" type="line"/>
      <point x="625" y="-356" type="line"/>
      <point x="736" y="893" type="line"/>
      <point x="996" y="893" type="line"/>
      <point x="1016" y="1140" type="line"/>
      <point x="756" y="1140" type="line"/>
      <point x="763" y="1202" type="line" smooth="yes"/>
      <point x="778" y="1349"/>
      <point x="847" y="1422"/>
      <point x="949" y="1422" type="curve" smooth="yes"/>
      <point x="1025" y="1422"/>
      <point x="1078" y="1411"/>
      <point x="1101" y="1395" type="curve"/>
      <point x="1123" y="1661" type="line"/>
      <point x="1099" y="1670"/>
      <point x="1008" y="1684"/>
      <point x="917" y="1684" type="curve" smooth="yes"/>
      <point x="678" y="1684"/>
      <point x="421" y="1581"/>
      <point x="390" y="1237" type="curve" smooth="yes"/>
      <point x="381" y="1140" type="line"/>
      <point x="221" y="1107" type="line"/>
      <point x="203" y="893" type="line"/>
      <point x="360" y="893" type="line"/>
    </contour>
  </outline>
</glyph>
<glyph name="dotlessj" format="1">
  <advance width="677"/>
  <unicode hex="0237"/>
  <outline>
    <contour>
      <point x="-104" y="-481" type="line"/>
      <point x="-73" y="-492"/>
      <point x="24" y="-507"/>
      <point x="93" y="-507" type="curve" smooth="yes"/>
      <point x="363" y="-507"/>
      <point x="531" y="-364"/>
      <point x="531" y="82" type="curve" smooth="yes"/>
      <point x="531" y="1140" type="line"/>
      <point x="159" y="1140" type="line"/>
      <point x="159" y="2" type="line" smooth="yes"/>
      <point x="159" y="-206"/>
      <point x="120" y="-269"/>
      <point x="13" y="-269" type="curve" smooth="yes"/>
      <point x="-21" y="-269"/>
      <point x="-88" y="-257"/>
      <point x="-104" y="-247" type="curve"/>
    </contour>
    <contour>
      <point x="342" y="1701" type="move" name="top"/>
    </contour>
  </outline>
</glyph>
<glyph name="caron" format="1">
  <advance width="830"/>
  <unicode hex="02C7"/>
  <outline>
    <contour>
      <point x="31" y="1619" type="line"/>
      <point x="336" y="1249" type="line"/>
      <point x="559" y="1249" type="line"/>
      <point x="863" y="1618" type="line"/>
      <point x="686" y="1732" type="line"/>
      <point x="447" y="1505" type="line"/>
      <point x="207" y="1732" type="line"/>
    </contour>
    <contour>
      <point x="450" y="1693" type="move" name="_top"/>
    </contour>
  </outline>
</glyph>
<glyph name="commaaccentcomb" format="1">
  <advance width="441"/>
  <unicode hex="0326"/>
  <outline>
    <contour>
      <point x="232" y="-560" type="line"/>
      <point x="270" y="-542"/>
      <point x="364" y="-433"/>
      <point x="364" y="-272" type="curve" smooth="yes"/>
      <point x="364" y="-165"/>
      <point x="300" y="-94"/>
      <point x="265" y="-84" type="curve"/>
      <point x="37" y="-179" type="line"/>
      <point x="37" y="-229" type="line"/>
      <point x="61" y="-243"/>
      <point x="90" y="-297"/>
      <point x="90" y="-350" type="curve" smooth="yes"/>
      <point x="90" y="-420"/>
      <point x="82" y="-462"/>
      <point x="67" y="-488" type="curve"/>
      <point x="67" y="-515" type="line"/>
    </contour>
    <contour>
      <point x="188" y="-170" type="move" name="_btm"/>
    </contour>
  </outline>
</glyph>
<glyph name="pi" format="1">
  <advance width="1603"/>
  <unicode hex="03C0"/>
  <outline>
    <contour>
      <point x="21" y="865" type="curve"/>
      <point x="147" y="770" type="line"/>
      <point x="188" y="809"/>
      <point x="229" y="850"/>
      <point x="336" y="850" type="curve" smooth="yes"/>
      <point x="1252" y="851" type="line" smooth="yes"/>
      <point x="1479" y="851"/>
      <point x="1576" y="953"/>
      <point x="1583" y="1215" type="curve"/>
      <point x="1387" y="1215" type="line"/>
      <point x="1369" y="1161"/>
      <point x="1334" y="1140"/>
      <point x="1252" y="1140" type="curve" smooth="yes"/>
      <point x="371" y="1140" type="line" smooth="yes"/>
      <point x="196" y="1140"/>
      <point x="128" y="1095"/>
      <point x="74" y="1029" type="curve" smooth="yes"/>
      <point x="37" y="975"/>
      <point x="23" y="902"/>
    </contour>
    <contour>
      <point x="890" y="282" type="line"/>
      <point x="870" y="84"/>
      <point x="952" y="-24"/>
      <point x="1122" y="-24" type="curve" smooth="yes"/>
      <point x="1344" y="-24"/>
      <point x="1502" y="105"/>
      <point x="1560" y="219" type="curve"/>
      <point x="1450" y="350" type="line"/>
      <point x="1408" y="304"/>
      <point x="1349" y="229"/>
      <point x="1278" y="229" type="curve" smooth="yes"/>
      <point x="1240" y="229"/>
      <point x="1211" y="262"/>
      <point x="1215" y="348" type="curve" smooth="yes"/>
      <point x="1239" y="1083" type="line"/>
      <point x="970" y="1081" type="line"/>
    </contour>
    <contour>
      <point x="132" y="127" type="curve"/>
      <point x="336" y="-24" type="line"/>
      <point x="427" y="-20"/>
      <point x="495" y="12"/>
      <point x="537" y="44" type="curve" smooth="yes"/>
      <point x="627" y="123"/>
      <point x="672" y="184"/>
      <point x="684" y="400" type="curve" smooth="yes"/>
      <point x="719" y="1081" type="line"/>
      <point x="435" y="1081" type="line"/>
      <point x="362" y="487" type="line" smooth="yes"/>
      <point x="348" y="364"/>
      <point x="323" y="255"/>
      <point x="218" y="170" type="curve" smooth="yes"/>
      <point x="186" y="146"/>
      <point x="150" y="131"/>
    </contour>
  </outline>
</glyph>
<glyph name="uni1E9E" format="1">
  <advance width="1526"/>
  <unicode hex="1E9E"/>
  <outline>
    <contour>
      <point x="1432" y="1135" type="line"/>
      <point x="1181" y="890" type="line"/>
      <point x="1297" y="890"/>
      <point x="1535" y="759"/>
      <point x="1535" y="486" type="curve" smooth="yes"/>
      <point x="1535" y="170"/>
      <point x="1314" y="-23"/>
      <point x="997" y="-23" type="curve" smooth="yes"/>
      <point x="783" y="-23"/>
      <point x="682" y="18"/>
      <point x="608" y="55" type="curve"/>
      <point x="698" y="306" type="line"/>
      <point x="743" y="280"/>
      <point x="820" y="238"/>
      <point x="923" y="238" type="curve" smooth="yes"/>
      <point x="1023" y="238"/>
      <point x="1141" y="296"/>
      <point x="1141" y="454" type="curve" smooth="yes"/>
      <point x="1141" y="625"/>
      <point x="1028" y="703"/>
      <point x="752" y="703" type="curve"/>
      <point x="756" y="903" type="line"/>
      <point x="1050" y="1243" type="line"/>
      <point x="1011" y="1263"/>
      <point x="951" y="1278"/>
      <point x="867" y="1278" type="curve" smooth="yes"/>
      <point x="610" y="1278"/>
      <point x="489" y="1140"/>
      <point x="489" y="868" type="curve" smooth="yes"/>
      <point x="489" y="0" type="line"/>
      <point x="103" y="0" type="line"/>
      <point x="103" y="753" type="line" smooth="yes"/>
      <point x="103" y="1241"/>
      <point x="370" y="1538"/>
      <point x="861" y="1538" type="curve" smooth="yes"/>
      <point x="1133" y="1538"/>
      <point x="1330" y="1441"/>
      <point x="1432" y="1441" type="curve"/>
    </contour>
  </outline>
</glyph>
<glyph name="bullet" format="1">
  <advance width="911"/>
  <unicode hex="2022"/>
  <outline>
    <contour>
      <point x="446" y="440" type="curve" smooth="yes"/>
      <point x="612" y="440"/>
      <point x="749" y="582"/>
      <point x="750" y="742" type="curve" smooth="yes"/>
      <point x="750" y="905"/>
      <point x="634" y="1022"/>
      <point x="468" y="1022" type="curve" smooth="yes"/>
      <point x="303" y="1022"/>
      <point x="162" y="882"/>
      <point x="161" y="721" type="curve" smooth="yes"/>
      <point x="160" y="560"/>
      <point x="281" y="440"/>
    </contour>
  </outline>
</glyph>
<glyph name="minute" format="1">
  <advance width="690"/>
  <unicode hex="2032"/>
  <outline>
    <contour>
      <point x="139" y="1190" type="line"/>
      <point x="417" y="1190" type="line"/>
      <point x="603" y="1850" type="line"/>
      <point x="257" y="1850" type="line"/>
    </contour>
  </outline>
</glyph>
<glyph name="guilsinglleft" format="1">
  <advance width="1212"/>
  <unicode hex="2039"/>
  <outline>
    <contour>
      <point x="221" y="473" type="line"/>
      <point x="885" y="56" type="line"/>
      <point x="971" y="309" type="line"/>
      <point x="492" y="679" type="line"/>
      <point x="492" y="551" type="line"/>
      <point x="971" y="921" type="line"/>
      <point x="885" y="1174" type="line"/>
      <point x="221" y="757" type="line"/>
    </contour>
  </outline>
</glyph>
<glyph name="fraction" format="1">
  <advance width="1034"/>
  <unicode hex="2044"/>
  <outline>
    <contour>
      <point x="377" y="0" type="line"/>
      <point x="919" y="1530" type="line"/>
      <point x="653" y="1530" type="line"/>
      <point x="114" y="0" type="line"/>
    </contour>
  </outline>
</glyph>
<glyph name="colonsign" format="1">
  <advance width="1484"/>
  <unicode hex="20A1"/>
  <outline>
    <contour>
      <point x="99" y="758" type="curve" smooth="yes"/>
      <point x="99" y="1196"/>
      <point x="363" y="1444"/>
      <point x="730" y="1516" type="curve"/>
      <point x="750" y="1815" type="line"/>
      <point x="867" y="1815" type="line"/>
      <point x="848" y="1533" type="line"/>
      <point x="887" y="1536"/>
      <point x="924" y="1538"/>
      <point x="963" y="1538" type="curve" smooth="yes"/>
      <point x="985" y="1538" type="line"/>
      <point x="1004" y="1815" type="line"/>
      <point x="1121" y="1815" type="line"/>
      <point x="1102" y="1530" type="line"/>
      <point x="1216" y="1517"/>
      <point x="1284" y="1489"/>
      <point x="1343" y="1476" type="curve"/>
      <point x="1291" y="1118" type="line"/>
      <point x="1268" y="1139"/>
      <point x="1198" y="1186"/>
      <point x="1080" y="1199" type="curve"/>
      <point x="1021" y="308" type="line"/>
      <point x="1142" y="313"/>
      <point x="1270" y="361"/>
      <point x="1319" y="407" type="curve"/>
      <point x="1319" y="64" type="line"/>
      <point x="1255" y="35"/>
      <point x="1148" y="-6"/>
      <point x="999" y="-14" type="curve"/>
      <point x="977" y="-354" type="line"/>
      <point x="860" y="-354" type="line"/>
      <point x="882" y="-14" type="line"/>
      <point x="835" y="-11"/>
      <point x="789" y="-8"/>
      <point x="746" y="-1" type="curve"/>
      <point x="723" y="-354" type="line"/>
      <point x="606" y="-354" type="line"/>
      <point x="631" y="23" type="line"/>
      <point x="277" y="116"/>
      <point x="99" y="379"/>
    </contour>
    <contour>
      <point x="770" y="350" type="line"/>
      <point x="809" y="333"/>
      <point x="853" y="321"/>
      <point x="904" y="314" type="curve"/>
      <point x="963" y="1203" type="line"/>
      <point x="914" y="1200"/>
      <point x="868" y="1193"/>
      <point x="825" y="1180" type="curve"/>
    </contour>
    <contour>
      <point x="534" y="783" type="curve" smooth="yes"/>
      <point x="534" y="627"/>
      <point x="573" y="507"/>
      <point x="657" y="424" type="curve"/>
      <point x="704" y="1126" type="line"/>
      <point x="597" y="1057"/>
      <point x="534" y="943"/>
    </contour>
  </outline>
</glyph>
<glyph name="naira" format="1">
  <advance width="1924"/>
  <unicode hex="20A6"/>
  <outline>
    <contour>
      <point x="107" y="994" type="line"/>
      <point x="107" y="1141" type="line"/>
      <point x="293" y="1141" type="line"/>
      <point x="293" y="1522" type="line"/>
      <point x="665" y="1522" type="line"/>
      <point x="913" y="1141" type="line"/>
      <point x="1282" y="1141" type="line"/>
      <point x="1282" y="1522" type="line"/>
      <point x="1685" y="1522" type="line"/>
      <point x="1685" y="1141" type="line"/>
      <point x="1879" y="1141" type="line"/>
      <point x="1879" y="994" type="line"/>
      <point x="1685" y="994" type="line"/>
      <point x="1685" y="528" type="line"/>
      <point x="1847" y="528" type="line"/>
      <point x="1847" y="381" type="line"/>
      <point x="1685" y="381" type="line"/>
      <point x="1685" y="0" type="line"/>
      <point x="1290" y="0" type="line"/>
      <point x="1050" y="381" type="line"/>
      <point x="696" y="381" type="line"/>
      <point x="696" y="0" type="line"/>
      <point x="293" y="0" type="line"/>
      <point x="293" y="381" type="line"/>
      <point x="84" y="381" type="line"/>
      <point x="84" y="528" type="line"/>
      <point x="293" y="528" type="line"/>
      <point x="293" y="994" type="line"/>
    </contour>
    <contour>
      <point x="1009" y="994" type="line"/>
      <point x="1189" y="719" type="line"/>
      <point x="1295" y="528" type="line"/>
      <point x="1325" y="528" type="line"/>
      <point x="1282" y="886" type="line"/>
      <point x="1282" y="994" type="line"/>
    </contour>
    <contour>
      <point x="696" y="625" type="line"/>
      <point x="696" y="528" type="line"/>
      <point x="958" y="528" type="line"/>
      <point x="790" y="795" type="line"/>
      <point x="677" y="994" type="line"/>
      <point x="646" y="994" type="line"/>
    </contour>
  </outline>
</glyph>
<glyph name="sheqel" format="1">
  <advance width="2148"/>
  <unicode hex="20AA"/>
  <outline>
    <contour>
      <point x="1671" y="1522" type="line"/>
      <point x="1979" y="1522" type="line"/>
      <point x="1979" y="0" type="line"/>
      <point x="1145" y="0" type="line" smooth="yes"/>
      <point x="873" y="0"/>
      <point x="722" y="114"/>
      <point x="722" y="424" type="curve" smooth="yes"/>
      <point x="722" y="1098" type="line"/>
      <point x="1039" y="1098" type="line"/>
      <point x="1039" y="425" type="line" smooth="yes"/>
      <point x="1039" y="285"/>
      <point x="1077" y="245"/>
      <point x="1292" y="245" type="curve" smooth="yes"/>
      <point x="1671" y="245" type="line"/>
    </contour>
    <contour>
      <point x="577" y="0" type="line"/>
      <point x="269" y="0" type="line"/>
      <point x="269" y="1522" type="line"/>
      <point x="1202" y="1522" type="line" smooth="yes"/>
      <point x="1455" y="1522"/>
      <point x="1536" y="1412"/>
      <point x="1536" y="1099" type="curve" smooth="yes"/>
      <point x="1536" y="395" type="line"/>
      <point x="1228" y="395" type="line"/>
      <point x="1228" y="1038" type="line" smooth="yes"/>
      <point x="1228" y="1179"/>
      <point x="1236" y="1258"/>
      <point x="1065" y="1258" type="curve" smooth="yes"/>
      <point x="577" y="1258" type="line"/>
    </contour>
  </outline>
</glyph>
<glyph name="Euro" format="1">
  <advance width="1478"/>
  <unicode hex="20AC"/>
  <outline>
    <contour>
      <point x="958" y="-28" type="curve" smooth="yes"/>
      <point x="1238" y="-28"/>
      <point x="1297" y="32"/>
      <point x="1381" y="43" type="curve"/>
      <point x="1321" y="322" type="line"/>
      <point x="1259" y="280"/>
      <point x="1140" y="246"/>
      <point x="1016" y="246" type="curve" smooth="yes"/>
      <point x="723" y="246"/>
      <point x="642" y="469"/>
      <point x="642" y="796" type="curve" smooth="yes"/>
      <point x="642" y="1127"/>
      <point x="800" y="1258"/>
      <point x="1011" y="1257" type="curve" smooth="yes"/>
      <point x="1168" y="1256"/>
      <point x="1231" y="1231"/>
      <point x="1300" y="1189" type="curve"/>
      <point x="1353" y="1477" type="line"/>
      <point x="1267" y="1496"/>
      <point x="1187" y="1546"/>
      <point x="959" y="1538" type="curve" smooth="yes"/>
      <point x="532" y="1523"/>
      <point x="267" y="1248"/>
      <point x="267" y="720" type="curve" smooth="yes"/>
      <point x="267" y="253"/>
      <point x="495" y="-28"/>
    </contour>
    <contour>
      <point x="114" y="843" type="line"/>
      <point x="1169" y="843" type="line"/>
      <point x="1169" y="1048" type="line"/>
      <point x="114" y="1048" type="line"/>
    </contour>
    <contour>
      <point x="84" y="472" type="line"/>
      <point x="1124" y="472" type="line"/>
      <point x="1124" y="677" type="line"/>
      <point x="84" y="677" type="line"/>
    </contour>
  </outline>
</glyph>
<glyph name="uni20B2" format="1">
  <advance width="1539"/>
  <unicode hex="20B2"/>
  <outline>
    <contour>
      <point x="70" y="753" type="curve" smooth="yes"/>
      <point x="70" y="1261"/>
      <point x="352" y="1487"/>
      <point x="730" y="1530" type="curve"/>
      <point x="730" y="1762" type="line"/>
      <point x="937" y="1762" type="line"/>
      <point x="937" y="1537" type="line"/>
      <point x="1115" y="1529"/>
      <point x="1228" y="1493"/>
      <point x="1317" y="1477" type="curve"/>
      <point x="1307" y="1133" type="line"/>
      <point x="1243" y="1171"/>
      <point x="1087" y="1214"/>
      <point x="900" y="1214" type="curve" smooth="yes"/>
      <point x="636" y="1214"/>
      <point x="493" y="1049"/>
      <point x="493" y="780" type="curve" smooth="yes"/>
      <point x="493" y="488"/>
      <point x="624" y="290"/>
      <point x="829" y="290" type="curve" smooth="yes"/>
      <point x="922" y="290"/>
      <point x="986" y="297"/>
      <point x="1026" y="320" type="curve"/>
      <point x="1026" y="564" type="line"/>
      <point x="816" y="585" type="line"/>
      <point x="816" y="873" type="line"/>
      <point x="1399" y="873" type="line"/>
      <point x="1399" y="84" type="line"/>
      <point x="1262" y="79"/>
      <point x="1197" y="-5"/>
      <point x="889" y="-15" type="curve"/>
      <point x="887" y="-258" type="line"/>
      <point x="680" y="-258" type="line"/>
      <point x="682" y="-5" type="line"/>
      <point x="318" y="48"/>
      <point x="70" y="312"/>
    </contour>
  </outline>
</glyph>
<glyph name="uni20B5" format="1">
  <advance width="1501"/>
  <unicode hex="20B5"/>
  <outline>
    <contour>
      <point x="116" y="758" type="curve" smooth="yes"/>
      <point x="116" y="1257"/>
      <point x="437" y="1512"/>
      <point x="851" y="1536" type="curve"/>
      <point x="876" y="1815" type="line"/>
      <point x="1023" y="1815" type="line"/>
      <point x="998" y="1535" type="line"/>
      <point x="1147" y="1527"/>
      <point x="1230" y="1492"/>
      <point x="1298" y="1476" type="curve"/>
      <point x="1246" y="1118" type="line"/>
      <point x="1218" y="1143"/>
      <point x="1128" y="1201"/>
      <point x="968" y="1204" type="curve"/>
      <point x="888" y="312" type="line"/>
      <point x="911" y="309"/>
      <point x="935" y="308"/>
      <point x="960" y="308" type="curve" smooth="yes"/>
      <point x="1088" y="308"/>
      <point x="1224" y="360"/>
      <point x="1274" y="407" type="curve"/>
      <point x="1274" y="64" type="line"/>
      <point x="1205" y="32"/>
      <point x="1081" y="-16"/>
      <point x="909" y="-16" type="curve" smooth="yes"/>
      <point x="892" y="-16"/>
      <point x="876" y="-15"/>
      <point x="859" y="-15" type="curve"/>
      <point x="829" y="-354" type="line"/>
      <point x="682" y="-354" type="line"/>
      <point x="713" y="0" type="line"/>
      <point x="317" y="64"/>
      <point x="116" y="342"/>
    </contour>
    <contour>
      <point x="552" y="783" type="curve" smooth="yes"/>
      <point x="552" y="575"/>
      <point x="612" y="427"/>
      <point x="745" y="355" type="curve"/>
      <point x="819" y="1185" type="line"/>
      <point x="659" y="1137"/>
      <point x="552" y="1004"/>
    </contour>
  </outline>
</glyph>
<glyph name="rupeeIndian" format="1">
  <advance width="1509"/>
  <unicode hex="20B9"/>
  <outline>
    <contour>
      <point x="1341" y="0" type="curve"/>
      <point x="908" y="0" type="line" smooth="yes"/>
      <point x="825" y="0"/>
      <point x="712" y="417"/>
      <point x="579" y="538" type="curve"/>
      <point x="535" y="534" type="line"/>
      <point x="355" y="527"/>
      <point x="233" y="532"/>
      <point x="189" y="537" type="curve"/>
      <point x="189" y="760" type="line"/>
      <point x="232" y="755"/>
      <point x="336" y="757"/>
      <point x="511" y="757" type="curve" smooth="yes"/>
      <point x="622" y="757"/>
      <point x="707" y="821"/>
      <point x="740" y="956" type="curve"/>
      <point x="189" y="956" type="line"/>
      <point x="189" y="1152" type="line"/>
      <point x="754" y="1152" type="line"/>
      <point x="746" y="1261"/>
      <point x="700" y="1328"/>
      <point x="495" y="1328" type="curve" smooth="yes"/>
      <point x="189" y="1328" type="line"/>
      <point x="189" y="1522" type="line"/>
      <point x="1407" y="1522" type="line"/>
      <point x="1407" y="1328" type="line"/>
      <point x="1138" y="1328" type="line"/>
      <point x="1161" y="1285"/>
      <point x="1176" y="1228"/>
      <point x="1180" y="1152" type="curve"/>
      <point x="1375" y="1152" type="line"/>
      <point x="1375" y="956" type="line"/>
      <point x="1166" y="956" type="line"/>
      <point x="1135" y="815"/>
      <point x="1065" y="697"/>
      <point x="954" y="625" type="curve"/>
      <point x="1129" y="494"/>
      <point x="1181" y="185"/>
    </contour>
  </outline>
</glyph>
<glyph name="Omega" format="1">
  <advance width="1829"/>
  <unicode hex="2126"/>
  <outline>
    <contour>
      <point x="812" y="213" type="line"/>
      <point x="714" y="264"/>
      <point x="552" y="483"/>
      <point x="552" y="821" type="curve" smooth="yes"/>
      <point x="552" y="1150"/>
      <point x="717" y="1282"/>
      <point x="921" y="1282" type="curve" smooth="yes"/>
      <point x="1109" y="1282"/>
      <point x="1271" y="1148"/>
      <point x="1271" y="819" type="curve" smooth="yes"/>
      <point x="1271" y="482"/>
      <point x="1131" y="264"/>
      <point x="1040" y="213" type="curve"/>
      <point x="1040" y="0" type="line"/>
      <point x="1044" y="0"/>
      <point x="1205" y="169"/>
      <point x="1210" y="169" type="curve"/>
      <point x="1437" y="239"/>
      <point x="1650" y="527"/>
      <point x="1654" y="850" type="curve" smooth="yes"/>
      <point x="1659" y="1336"/>
      <point x="1354" y="1545"/>
      <point x="921" y="1545" type="curve" smooth="yes"/>
      <point x="536" y="1545"/>
      <point x="176" y="1353"/>
      <point x="168" y="854" type="curve" smooth="yes"/>
      <point x="164" y="516"/>
      <point x="422" y="229"/>
      <point x="603" y="169" type="curve"/>
      <point x="812" y="0" type="line"/>
    </contour>
    <contour>
      <point x="157" y="0" type="line"/>
      <point x="812" y="0" type="line"/>
      <point x="598" y="251" type="line"/>
      <point x="157" y="251" type="line"/>
    </contour>
    <contour>
      <point x="1040" y="0" type="line"/>
      <point x="1678" y="0" type="line"/>
      <point x="1678" y="251" type="line"/>
      <point x="1165" y="251" type="line"/>
    </contour>
  </outline>
</glyph>
<glyph name="estimated" format="1">
  <advance width="1381"/>
  <unicode hex="212E"/>
  <outline>
    <contour>
      <point x="735" y="-16" type="curve" smooth="yes"/>
      <point x="929" y="-16"/>
      <point x="1112" y="54"/>
      <point x="1197" y="115" type="curve"/>
      <point x="1127" y="266" type="line"/>
      <point x="1054" y="211"/>
      <point x="914" y="147"/>
      <point x="749" y="147" type="curve" smooth="yes"/>
      <point x="516" y="147"/>
      <point x="334" y="249"/>
      <point x="320" y="585" type="curve"/>
      <point x="314" y="681"/>
      <point x="319" y="800"/>
      <point x="334" y="868" type="curve" smooth="yes"/>
      <point x="385" y="1104"/>
      <point x="533" y="1193"/>
      <point x="721" y="1193" type="curve" smooth="yes"/>
      <point x="982" y="1193"/>
      <point x="1049" y="1054"/>
      <point x="1065" y="899" type="curve" smooth="yes"/>
      <point x="1070" y="860"/>
      <point x="1070" y="808"/>
      <point x="1068" y="768" type="curve"/>
      <point x="247" y="768" type="line"/>
      <point x="227" y="612" type="line"/>
      <point x="1262" y="612" type="line"/>
      <point x="1273" y="663"/>
      <point x="1273" y="746"/>
      <point x="1273" y="832" type="curve"/>
      <point x="1262" y="1161"/>
      <point x="1030" y="1361"/>
      <point x="735" y="1356" type="curve" smooth="yes"/>
      <point x="309" y="1349"/>
      <point x="108" y="1063"/>
      <point x="108" y="671" type="curve" smooth="yes"/>
      <point x="108" y="241"/>
      <point x="337" y="-16"/>
    </contour>
    <contour>
      <point x="298" y="237" type="line"/>
      <point x="450" y="175" type="line"/>
      <point x="450" y="1171" type="line"/>
      <point x="298" y="1078" type="line"/>
    </contour>
    <contour>
      <point x="949" y="736" type="line"/>
      <point x="1092" y="736" type="line"/>
      <point x="1092" y="1158" type="line"/>
      <point x="949" y="1198" type="line"/>
    </contour>
  </outline>
</glyph>
<glyph name="Delta" format="1">
  <advance width="1625"/>
  <unicode hex="2206"/>
  <outline>
    <contour>
      <point x="92" y="0" type="line"/>
      <point x="1528" y="0" type="line"/>
      <point x="1544" y="27" type="line"/>
      <point x="809" y="1508" type="line"/>
      <point x="769" y="1508" type="line"/>
      <point x="78" y="22" type="line"/>
    </contour>
    <contour>
      <point x="513" y="290" type="line"/>
      <point x="783" y="892" type="line"/>
      <point x="1071" y="290" type="line"/>
    </contour>
  </outline>
</glyph>
<glyph name="minus" format="1">
  <advance width="1358"/>
  <unicode hex="2212"/>
  <outline>
    <contour>
      <point x="254" y="626" type="line"/>
      <point x="1104" y="626" type="line"/>
      <point x="1104" y="904" type="line"/>
      <point x="254" y="904" type="line"/>
    </contour>
  </outline>
</glyph>
<glyph name="bulletoperator" format="1">
  <advance width="671"/>
  <unicode hex="2219"/>
  <outline>
    <contour>
      <point x="327" y="543" type="curve" smooth="yes"/>
      <point x="468" y="543"/>
      <point x="574" y="662"/>
      <point x="573" y="797" type="curve" smooth="yes"/>
      <point x="573" y="931"/>
      <point x="486" y="1031"/>
      <point x="347" y="1031" type="curve" smooth="yes"/>
      <point x="206" y="1031"/>
      <point x="97" y="912"/>
      <point x="97" y="778" type="curve" smooth="yes"/>
      <point x="98" y="644"/>
      <point x="191" y="543"/>
    </contour>
  </outline>
</glyph>
<glyph name="radical" format="1">
  <advance width="1647"/>
  <unicode hex="221A"/>
  <outline>
    <contour>
      <point x="703" y="-354" type="line"/>
      <point x="1020" y="-354" type="line"/>
      <point x="1705" y="1870" type="line"/>
      <point x="1338" y="1870" type="line"/>
      <point x="831" y="-24" type="line"/>
      <point x="891" y="-23" type="line"/>
      <point x="644" y="716" type="line"/>
      <point x="382" y="716" type="line"/>
      <point x="99" y="575" type="line"/>
      <point x="225" y="294" type="line"/>
      <point x="392" y="378" type="line"/>
    </contour>
  </outline>
</glyph>
<glyph name="integral" format="1">
  <advance width="1087"/>
  <unicode hex="222B"/>
  <outline>
    <contour>
      <point x="424" y="-518" type="curve" smooth="yes"/>
      <point x="781" y="-518"/>
      <point x="925" y="-257"/>
      <point x="921" y="-2" type="curve" smooth="yes"/>
      <point x="914" y="426"/>
      <point x="500" y="809"/>
      <point x="494" y="1196" type="curve" smooth="yes"/>
      <point x="491" y="1356"/>
      <point x="565" y="1448"/>
      <point x="705" y="1448" type="curve" smooth="yes"/>
      <point x="791" y="1448"/>
      <point x="867" y="1394"/>
      <point x="881" y="1364" type="curve"/>
      <point x="1012" y="1547" type="line"/>
      <point x="962" y="1631"/>
      <point x="821" y="1684"/>
      <point x="686" y="1684" type="curve" smooth="yes"/>
      <point x="325" y="1684"/>
      <point x="168" y="1459"/>
      <point x="173" y="1181" type="curve" smooth="yes"/>
      <point x="179" y="758"/>
      <point x="592" y="365"/>
      <point x="598" y="-25" type="curve" smooth="yes"/>
      <point x="601" y="-168"/>
      <point x="559" y="-274"/>
      <point x="404" y="-274" type="curve" smooth="yes"/>
      <point x="320" y="-274"/>
      <point x="219" y="-213"/>
      <point x="194" y="-175" type="curve"/>
      <point x="91" y="-387" type="line"/>
      <point x="140" y="-462"/>
      <point x="302" y="-518"/>
    </contour>
  </outline>
</glyph>
<glyph name=".notdef" format="1">
  <advance width="1878"/>
  <outline>
    <contour>
      <point x="231" y="0" type="line"/>
      <point x="1647" y="0" type="line"/>
      <point x="1647" y="1416" type="line"/>
      <point x="231" y="1416" type="line"/>
    </contour>
    <contour>
      <point x="589" y="219" type="line"/>
      <point x="461" y="363" type="line"/>
      <point x="819" y="705" type="line"/>
      <point x="460" y="1068" type="line"/>
      <point x="583" y="1193" type="line"/>
      <point x="940" y="825" type="line"/>
      <point x="1292" y="1191" type="line"/>
      <point x="1420" y="1067" type="line"/>
      <point x="1057" y="709" type="line"/>
      <point x="1420" y="341" type="line"/>
      <point x="1298" y="219" type="line"/>
      <point x="936" y="587" type="line"/>
    </contour>
  </outline>
</glyph>
<glyph name="acute.cap" format="1">
  <advance width="677"/>
  <outline>
    <contour>
      <point x="275" y="1534" type="line"/>
      <point x="364" y="1562"/>
      <point x="541" y="1734"/>
      <point x="624" y="1858" type="curve"/>
      <point x="362" y="1988" type="line"/>
      <point x="336" y="1909"/>
      <point x="143" y="1706"/>
      <point x="102" y="1666" type="curve"/>
    </contour>
    <contour>
      <point x="247" y="1700" type="move" name="_top"/>
    </contour>
  </outline>
</glyph>
<glyph name="caron.cap" format="1">
  <advance width="765"/>
  <outline>
    <contour>
      <point x="326" y="1558" type="line"/>
      <point x="560" y="1558" type="line"/>
      <point x="842" y="1849" type="line"/>
      <point x="667" y="1964" type="line"/>
      <point x="443" y="1797" type="line"/>
      <point x="220" y="1964" type="line"/>
      <point x="44" y="1849" type="line"/>
    </contour>
    <contour>
      <point x="442" y="1700" type="move" name="_top"/>
    </contour>
  </outline>
</glyph>
<glyph name="caronvertical" format="1">
  <advance width="450"/>
  <outline>
    <contour>
      <point x="264" y="986" type="line"/>
      <point x="327" y="1054"/>
      <point x="413" y="1225"/>
      <point x="413" y="1434" type="curve" smooth="yes"/>
      <point x="413" y="1581"/>
      <point x="384" y="1674"/>
      <point x="328" y="1723" type="curve"/>
      <point x="74" y="1634" type="line"/>
      <point x="63" y="1567" type="line"/>
      <point x="100" y="1527"/>
      <point x="124" y="1446"/>
      <point x="124" y="1347" type="curve" smooth="yes"/>
      <point x="125" y="1222"/>
      <point x="113" y="1123"/>
      <point x="99" y="1062" type="curve"/>
      <point x="107" y="1027" type="line"/>
    </contour>
  </outline>
</glyph>
<glyph name="dotaccent.cap" format="1">
  <advance width="533"/>
  <outline>
    <contour>
      <point x="259" y="1596" type="curve" smooth="yes"/>
      <point x="380" y="1596"/>
      <point x="467" y="1676"/>
      <point x="467" y="1787" type="curve" smooth="yes"/>
      <point x="467" y="1901"/>
      <point x="397" y="1963"/>
      <point x="276" y="1963" type="curve" smooth="yes"/>
      <point x="156" y="1963"/>
      <point x="66" y="1885"/>
      <point x="66" y="1773" type="curve" smooth="yes"/>
      <point x="66" y="1661"/>
      <point x="140" y="1596"/>
    </contour>
    <contour>
      <point x="259" y="1701" type="move" name="_top"/>
    </contour>
  </outline>
</glyph>
<glyph name="four.numr" format="1">
  <advance width="1205"/>
  <outline>
    <contour>
      <point x="122" y="853" type="line"/>
      <point x="1144" y="853" type="line"/>
      <point x="1144" y="1068" type="line"/>
      <point x="429" y="1068" type="line"/>
      <point x="472" y="1143" type="line"/>
      <point x="851" y="1753" type="line"/>
      <point x="611" y="1856" type="line"/>
      <point x="542" y="1856" type="line"/>
      <point x="69" y="947" type="line"/>
    </contour>
    <contour>
      <point x="692" y="588" type="line"/>
      <point x="992" y="588" type="line"/>
      <point x="992" y="1340" type="line"/>
      <point x="722" y="1340" type="line"/>
      <point x="694" y="1061" type="line"/>
    </contour>
  </outline>
</glyph>
